<?xml version="1.0" encoding="utf-8"?>
<svg xmlns="http://www.w3.org/2000/svg" xmlns:xlink="http://www.w3.org/1999/xlink" version= "1.1" width="418px" height="120px" viewBox="1191 378 418 120">
<g id="layer1">
<g style="fill:rgb(0,0,0); fill-opacity:1.0; stroke-linejoin: miter">
<path d="M1377.7389,414.71094Q1349.8461,414.71094,1327.1377,420.6338L1327.1368,420.6338Q1322.219,421.85898,1313.8273,425.43155L1313.7439,425.46848L1273.5316,443.97638L1273.5308,443.97638Q1270.2499,445.42035,1263.757,446.36755L1263.75,446.36755Q1262.4037,446.52994,1261.1987,446.52994Q1260.7634,446.52994,1260.3467,446.50873L1260.3341,446.50873L1244.6908,445.2615L1244.6783,445.2615Q1224.9084,441.17712,1198.8969,437.9653C1198.7654,437.94907,1198.6349,437.94116,1198.5059,437.94116C1196.934,437.94116,1195.5724,439.1132,1195.3749,440.71313C1195.1611,442.4445,1196.3914,444.02136,1198.1227,444.23514Q1224.0015,447.43057,1243.5829,451.48608C1243.7114,451.51273,1243.8416,451.5313,1243.9724,451.54175L1259.8474,452.80746L1259.9235,452.8126Q1260.549,452.84732,1261.1973,452.84732Q1262.8265,452.84732,1264.6003,452.62805L1264.6688,452.61884Q1272.0597,451.54065,1276.1334,449.733L1276.173,449.71515L1316.3853,431.20724L1316.3887,431.20724Q1324.2855,427.84958,1328.6952,426.75616L1328.7322,426.74677Q1350.6567,421.02835,1377.7365,421.02835Q1380.2249,421.02835,1382.7568,421.07663L1382.8612,421.0769Q1383.2932,421.07086,1383.7268,421.07086Q1399.6943,421.07086,1417.7906,429.2602L1417.7869,429.2602Q1426.4333,433.53598,1448.7938,453.5141C1448.9885,453.6881,1449.204,453.83722,1449.4354,453.95816L1465.9124,462.56805L1465.9114,462.56805Q1466.3298,462.79007,1466.8624,462.93332L1466.8624,462.93332Q1469.4493,463.62912,1485.1178,464.22565C1485.1578,464.22717,1485.198,464.22794,1485.238,464.22794C1485.3662,464.22794,1485.4943,464.22012,1485.6216,464.20456L1527.842,459.0383L1527.8563,459.0383Q1531.1472,458.73477,1534.972,458.73477Q1540.7904,458.73477,1547.8442,459.43716L1547.8289,459.43716Q1576.1909,463.46393,1599.2675,474.81683C1599.716,475.03748,1600.1913,475.14197,1600.6594,475.14197C1601.8254,475.14197,1602.9467,474.4938,1603.4961,473.37695C1604.2662,471.8116,1603.6216,469.91837,1602.0563,469.14825Q1578.0336,457.32996,1548.6134,453.16776C1548.5704,453.16168,1548.5273,453.1565,1548.4841,453.1522Q1541.1173,452.41806,1534.9683,452.41806Q1530.7837,452.41806,1527.1631,452.75806L1527.0747,452.7676L1485.1055,457.90314L1485.1055,457.90314Q1470.9498,457.36066,1468.6665,456.87158L1468.6519,456.87158L1452.7441,448.5591L1452.7296,448.5591Q1429.8296,428.12137,1420.4817,423.54538L1420.3951,423.50464Q1401.057,414.75342,1383.7277,414.75342Q1383.2758,414.75342,1382.8252,414.75937L1382.8252,414.75937Q1380.2609,414.71094,1377.7389,414.71094 Z"/>
</g>
</g>
</svg>