<?xml version="1.0" encoding="utf-8"?>
<svg xmlns="http://www.w3.org/2000/svg" xmlns:xlink="http://www.w3.org/1999/xlink" version= "1.1" width="408px" height="120px" viewBox="292 391 408 120">
<g id="layer1">
<g style="fill:rgb(0,0,0); fill-opacity:1.0; stroke-linejoin: miter">
<path d="M521.1909,471.4688Q521.28156,471.4688,521.3767,471.47385L521.3767,471.47385C521.3209,471.4709,521.2652,471.46942,521.2097,471.46942C521.04895,471.46942,520.88965,471.4817,520.73303,471.5056L520.73303,471.5056Q520.94556,471.4688,521.1909,471.4688 Z M562.477,403.0247C562.3392,403.0247,562.2015,403.03372,562.06476,403.0517Q556.28143,403.81284,553.3107,406.8088C553.24396,406.87616,553.18024,406.9465,553.11975,407.0196Q543.0365,419.20947,540.9833,423.1846C540.92676,423.29404,540.8767,423.40662,540.8333,423.5219Q524.3786,467.25897,520.15857,471.65143L520.1533,471.65143C519.5394,471.86945,518.99786,472.27554,518.6149,472.82745Q507.3021,489.13153,494.7713,493.1032L494.76636,493.1032Q493.60995,493.271,492.44568,493.271Q488.1716,493.271,483.7917,491.00986L483.78687,491.00986L450.0595,458.79114C449.98193,458.71704,449.90067,458.64694,449.81598,458.58112Q441.78958,452.34317,432.3472,450.66394L432.25983,450.64966Q431.11893,450.47958,429.93597,450.47958Q423.39035,450.47958,415.55804,455.6866L415.4916,455.73203L372.42203,485.97513L372.4183,485.97513Q366.43384,489.2722,354.11963,492.04163L354.0351,492.06186Q352.44672,492.4653,350.43597,492.4653Q346.38138,492.4653,340.60938,490.82486L340.606,490.82486L298.8174,477.79947C298.5045,477.70193,298.18784,477.65552,297.87646,477.65552C296.53064,477.65552,295.28342,478.52255,294.86182,479.87512C294.34268,481.54062,295.27197,483.31158,296.93747,483.83072L338.72696,496.85638L338.79974,496.8781Q345.43338,498.77206,350.47275,498.77206Q353.2326,498.77206,355.51428,498.20404L355.51074,498.20404Q368.87793,495.19736,375.6579,491.40228C375.75153,491.34985,375.84244,491.2927,375.93027,491.23102L419.12204,460.90213L419.12405,460.90213Q425.32547,456.79608,429.92007,456.79608Q430.63434,456.79608,431.30978,456.89532L431.30548,456.89532Q439.1145,458.30048,445.83768,463.4906L445.83322,463.4906L479.73572,495.87662C479.94083,496.07254,480.1714,496.23996,480.42117,496.37433Q486.40408,499.59274,492.40924,499.59274Q494.19696,499.59274,495.98666,499.30753C496.13336,499.28415,496.2783,499.25043,496.42026,499.20667Q510.822,494.7658,523.23615,477.2408L523.2309,477.2408Q523.65393,476.99783,524.0621,476.64694Q529.2739,472.1658,546.6635,425.96606L546.658,425.96606Q548.4903,422.53592,557.8625,411.1976L557.85693,411.1976Q559.2669,409.83722,562.6266,409.35135L562.63226,409.35135Q572.0986,409.78372,574.6457,415.05225C574.70465,415.17426,574.77136,415.29218,574.8455,415.4056Q603.27795,458.9034,616.68665,487.49957C616.73737,487.6078,616.7942,487.71298,616.8569,487.81476Q622.3521,496.73907,626.627,497.87796L626.6271,497.87796Q626.8656,497.9415,627.1035,497.98495L627.0972,497.98495Q631.13934,499.14215,635.3955,499.14215Q645.88635,499.14215,657.6773,492.11154C657.79395,492.042,657.9058,491.9651,658.0125,491.88113Q670.0417,482.4185,699.88904,449.83722C701.06744,448.55087,700.98,446.5528,699.6936,445.3744C699.0873,444.81897,698.3229,444.54477,697.5607,444.54477C696.7058,444.54477,695.8537,444.88977,695.2307,445.56982Q665.90875,477.5776,654.24744,486.80475L654.2409,486.80475Q644.0767,492.81458,635.3685,492.81458Q631.9083,492.81458,628.678,491.8657C628.5398,491.8251,628.39905,491.794,628.2568,491.77264L628.2505,491.77264Q626.43445,491.28445,622.3553,484.69507L622.34906,484.69507Q608.77954,455.79227,580.2632,412.1476L580.2574,412.1476Q575.9765,403.53394,562.59656,403.02695C562.5567,403.02542,562.51685,403.0247,562.477,403.0247 Z"/>
</g>
</g>
</svg>